<?xml version="1.0" encoding="UTF-8" standalone="no"?>
<!-- Created with Inkscape (http://www.inkscape.org/) -->

<svg
   xmlns:dc="http://purl.org/dc/elements/1.1/"
   xmlns:cc="http://creativecommons.org/ns#"
   xmlns:rdf="http://www.w3.org/1999/02/22-rdf-syntax-ns#"
   xmlns:svg="http://www.w3.org/2000/svg"
   xmlns="http://www.w3.org/2000/svg"
   xmlns:sodipodi="http://sodipodi.sourceforge.net/DTD/sodipodi-0.dtd"
   xmlns:inkscape="http://www.inkscape.org/namespaces/inkscape"
   width="210mm"
   height="297mm"
   viewBox="0 0 210 297"
   version="1.1"
   id="svg8"
   inkscape:version="0.92.2 (5c3e80d, 2017-08-06)"
   sodipodi:docname="jet1.svg">
  <defs
     id="defs2" />
  <sodipodi:namedview
     id="base"
     pagecolor="#ffffff"
     bordercolor="#666666"
     borderopacity="1.0"
     inkscape:pageopacity="0.0"
     inkscape:pageshadow="2"
     inkscape:zoom="1.979899"
     inkscape:cx="161.3391"
     inkscape:cy="805.51329"
     inkscape:document-units="mm"
     inkscape:current-layer="layer1"
     showgrid="false"
     inkscape:window-width="1920"
     inkscape:window-height="1025"
     inkscape:window-x="0"
     inkscape:window-y="27"
     inkscape:window-maximized="1" />
  <metadata
     id="metadata5">
    <rdf:RDF>
      <cc:Work
         rdf:about="">
        <dc:format>image/svg+xml</dc:format>
        <dc:type
           rdf:resource="http://purl.org/dc/dcmitype/StillImage" />
        <dc:title></dc:title>
      </cc:Work>
    </rdf:RDF>
  </metadata>
  <g
     inkscape:label="Layer 1"
     inkscape:groupmode="layer"
     id="layer1">
    <rect
       style="fill:none;fill-opacity:1;stroke:#000000;stroke-width:2;stroke-miterlimit:4;stroke-dasharray:none;stroke-dashoffset:0;stroke-opacity:1"
       id="rect815"
       width="82.398804"
       height="82.398804"
       x="18.520834"
       y="36.574402" />
    <g
       id="g839"
       transform="matrix(1.2989655,0.27994962,-0.27994962,1.2989655,13.729632,-39.477119)">
      <path
         sodipodi:nodetypes="csssssssssssssssssssssssssssssssssssc"
         inkscape:connector-curvature="0"
         id="path830"
         d="m 72.964581,62.070085 c 0,0 -3.837219,-1.847091 -5.87993,-2.405428 -1.780483,-0.486662 -3.636809,-0.916669 -5.479026,-0.801806 -2.168011,0.135176 -4.380705,0.684607 -6.280833,1.737251 -1.902923,1.054192 -3.415939,2.74062 -4.810852,4.409948 -1.283744,1.536289 -2.513447,3.20013 -3.207234,5.078119 -0.857945,2.322344 -1.038958,4.874344 -1.069078,7.349913 -0.03166,2.602161 0.186611,5.258529 0.935442,7.750816 0.687879,2.289424 1.734454,4.531503 3.207234,6.414468 1.732431,2.214932 3.867408,4.28751 6.414471,5.479026 2.169074,1.014693 4.697568,1.416965 7.082642,1.202714 2.73672,-0.245839 4.759733,-0.814311 7.169068,-2.135361 1.281227,-0.702503 3.135176,-2.228542 4.074686,-3.347638 1.422014,-1.693828 2.298668,-3.797764 3.055165,-5.875958 0.780068,-2.142945 1.291576,-4.408218 1.469983,-6.681737 0.174553,-2.224413 0.07041,-4.500833 -0.400905,-6.681737 -0.473566,-2.19131 -1.325556,-4.31615 -2.405425,-6.280835 -1.042782,-1.897209 -2.312628,-3.713584 -3.875408,-5.211755 -0.972145,-0.931954 -2.167505,-1.610866 -3.340869,-2.271792 -1.493609,-0.841312 -3.040402,-1.628734 -4.677217,-2.138156 -1.468453,-0.457023 -3.009364,-0.69503 -4.543581,-0.801809 -2.490083,-0.173306 -5.004376,-0.02299 -7.483549,0.267271 -2.255945,0.264121 -4.501835,0.698324 -6.681737,1.336347 -1.881548,0.550699 -3.740119,1.232785 -5.479026,2.138156 -2.279308,1.186734 -4.375736,2.711975 -6.414469,4.276313 -1.552556,1.19129 -3.112322,2.410561 -4.409945,3.875407 -0.679999,0.76763 -1.470413,1.626483 -2.020736,2.491814 -1.082321,1.701849 -2.069976,3.375094 -2.790117,5.259001 -0.486607,1.272978 -0.791432,2.646271 -0.801808,4.009044 -0.0131,1.721138 0.313781,3.473123 0.935443,5.078123 1.004488,2.593378 2.381632,5.17987 4.409948,7.082642 2.470964,2.318022 5.819884,3.522771 8.953529,4.810852 2.620338,1.077087 5.364238,1.89923 8.15172,2.405425 3.03207,0.550607 6.139504,0.715547 9.220799,0.668177 2.597086,-0.0399 5.232155,-0.16715 7.750816,-0.801811 1.588249,-0.400212 3.086579,-1.122657 4.543582,-1.870887 1.26527,-0.649767 3.927302,-2.336499 3.703971,-2.393852"
         style="fill:#000000;stroke:#000000;stroke-width:0.26458332px;stroke-linecap:butt;stroke-linejoin:miter;stroke-opacity:1" />
      <path
         sodipodi:nodetypes="ssssssssssssszzzssscs"
         inkscape:connector-curvature="0"
         id="path834"
         d="m 70.291885,75.299926 c 0.283297,1.272888 0.515385,2.571516 0.534538,3.875408 0.02435,1.657586 -0.07418,3.351922 -0.534538,4.944485 -0.647269,2.239179 -1.551913,4.515233 -3.073598,6.280836 -1.589106,1.843831 -3.782713,3.329538 -5.111532,3.975633 -0.709875,0.345153 -2.384653,0.819008 -3.173824,0.835217 -1.285373,0.0264 -2.598324,-0.347732 -3.741774,-0.935443 -1.087271,-0.558836 -2.171116,-1.436749 -3.02807,-2.308577 -0.956984,-0.973595 -1.683425,-2.049346 -2.364723,-3.232367 -0.83067,-1.442394 -1.367868,-3.056993 -1.748142,-4.677457 -0.488344,-2.080986 -0.753199,-4.242799 -0.661458,-6.378347 0.09704,-2.258873 0.445223,-4.558908 1.27567,-6.66183 0.834527,-2.113253 2.078062,-4.112227 3.63802,-5.764136 1.023185,-1.083497 2.034023,-2.016671 2.952939,-2.563152 0.918917,-0.546481 1.948055,-0.96682 2.527715,-1.039435 0.57966,-0.07262 1.859326,0.04898 2.964753,0.543341 1.105426,0.494362 1.964087,1.24193 2.964751,1.925316 0.99592,0.680146 1.848712,1.623103 2.574962,2.539527 0.178499,0.22524 1.421637,2.078564 1.730248,2.593204 0.336748,0.561561 0.954419,1.880044 0.954419,1.880044 0,0 1.0258,2.847455 1.319644,4.167733 z"
         style="fill:#cccccc;stroke:#000000;stroke-width:0.26458332px;stroke-linecap:butt;stroke-linejoin:miter;stroke-opacity:1" />
      <path
         sodipodi:nodetypes="sssssssssss"
         inkscape:connector-curvature="0"
         id="path832"
         d="m 52.284601,75.567196 c 0.451369,-0.588136 1.267682,-1.235842 1.971113,-1.469984 0.593218,-0.197457 1.2686,-0.301409 1.870885,-0.133633 0.892922,0.248737 1.714759,0.862741 2.271792,1.603616 0.73652,0.9796 1.019305,1.650381 1.102488,2.873147 0.06167,0.906447 -0.255584,2.415699 -0.701585,3.207236 -0.35597,0.631752 -0.674469,1.240581 -1.336346,1.536799 -0.817232,0.365745 -1.819497,0.538727 -2.672696,0.267269 -1.2938,-0.411642 -1.99784,-1.026864 -2.672694,-2.204972 -0.360433,-0.629217 -0.846867,-1.88214 -0.801809,-2.605878 0.07265,-1.166992 0.256981,-2.146029 0.968852,-3.0736 z"
         style="fill:#000000;stroke:#000000;stroke-width:0.26458332px;stroke-linecap:butt;stroke-linejoin:miter;stroke-opacity:1" />
    </g>
  </g>
</svg>
