{
  "accessors": [
    {
      "bufferView": 1,
      "componentType": 5126,
      "count": 20,
      "max": [
        2,
        2,
        0.05000000074505806
      ],
      "min": [
        -2,
        -2,
        0
      ],
      "type": "VEC3"
    },
    {
      "bufferView": 1,
      "byteOffset": 240,
      "componentType": 5126,
      "count": 20,
      "max": [
        1,
        1,
        1
      ],
      "min": [
        -1,
        -1,
        0
      ],
      "type": "VEC3"
    },
    {
      "bufferView": 2,
      "componentType": 5126,
      "count": 20,
      "max": [
        0.99997317790985107,
        0.029935315251350403,
        0.99955195188522339,
        1
      ],
      "min": [
        0,
        0,
        -0.99955207109451294,
        1
      ],
      "type": "VEC4"
    },
    {
      "bufferView": 0,
      "componentType": 5125,
      "count": 30,
      "max": [
        19
      ],
      "min": [
        0
      ],
      "type": "SCALAR"
    },
    {
      "bufferView": 1,
      "byteOffset": 480,
      "componentType": 5126,
      "count": 224,
      "max": [
        1.3956899642944336,
        1.8117200136184692,
        2.5560200214385986
      ],
      "min": [
        -1.6782699823379517,
        -1.830299973487854,
        0.05000000074505806
      ],
      "type": "VEC3"
    },
    {
      "bufferView": 1,
      "byteOffset": 3168,
      "componentType": 5126,
      "count": 224,
      "max": [
        1,
        1,
        -0
      ],
      "min": [
        -1,
        -1,
        -0
      ],
      "type": "VEC3"
    },
    {
      "bufferView": 0,
      "byteOffset": 120,
      "componentType": 5125,
      "count": 336,
      "max": [
        223
      ],
      "min": [
        0
      ],
      "type": "SCALAR"
    },
    {
      "bufferView": 1,
      "byteOffset": 5856,
      "componentType": 5126,
      "count": 709,
      "max": [
        1.7132999897003174,
        1.8605200052261353,
        2.9420900344848633
      ],
      "min": [
        -1.7250000238418579,
        -1.8604899644851685,
        0.05000000074505806
      ],
      "type": "VEC3"
    },
    {
      "bufferView": 1,
      "byteOffset": 14364,
      "componentType": 5126,
      "count": 709,
      "max": [
        1,
        1,
        1
      ],
      "min": [
        -1,
        -1,
        -0.40861091017723083
      ],
      "type": "VEC3"
    },
    {
      "bufferView": 0,
      "byteOffset": 1464,
      "componentType": 5125,
      "count": 1428,
      "max": [
        708
      ],
      "min": [
        0
      ],
      "type": "SCALAR"
    },
    {
      "bufferView": 1,
      "byteOffset": 22872,
      "componentType": 5126,
      "count": 504,
      "max": [
        1.894569993019104,
        1.9518500566482544,
        3.002310037612915
      ],
      "min": [
        -1.8450000286102295,
        -1.9334499835968018,
        1.8985999822616577
      ],
      "type": "VEC3"
    },
    {
      "bufferView": 1,
      "byteOffset": 28920,
      "componentType": 5126,
      "count": 504,
      "max": [
        0.99999988079071045,
        0.99999022483825684,
        1
      ],
      "min": [
        -0.99999988079071045,
        -0.99999022483825684,
        -0.8829575777053833
      ],
      "type": "VEC3"
    },
    {
      "bufferView": 0,
      "byteOffset": 7176,
      "componentType": 5125,
      "count": 804,
      "max": [
        503
      ],
      "min": [
        0
      ],
      "type": "SCALAR"
    },
    {
      "bufferView": 1,
      "byteOffset": 34968,
      "componentType": 5126,
      "count": 1606,
      "max": [
        1.3616499900817871,
        1.9228899478912354,
        3.1818599700927734
      ],
      "min": [
        -1.8138300180435181,
        -1.6964900493621826,
        0.21487000584602356
      ],
      "type": "VEC3"
    },
    {
      "bufferView": 1,
      "byteOffset": 54240,
      "componentType": 5126,
      "count": 1606,
      "max": [
        1,
        1,
        1
      ],
      "min": [
        -1,
        -1,
        -0.44844919443130493
      ],
      "type": "VEC3"
    },
    {
      "bufferView": 0,
      "byteOffset": 10392,
      "componentType": 5125,
      "count": 2970,
      "max": [
        1605
      ],
      "min": [
        0
      ],
      "type": "SCALAR"
    },
    {
      "bufferView": 1,
      "byteOffset": 73512,
      "componentType": 5126,
      "count": 180,
      "max": [
        1.5285300016403198,
        -0.50999999046325684,
        2.9640200138092041
      ],
      "min": [
        -1.579800009727478,
        -1.7504199743270874,
        2.7999999523162842
      ],
      "type": "VEC3"
    },
    {
      "bufferView": 1,
      "byteOffset": 75672,
      "componentType": 5126,
      "count": 180,
      "max": [
        1,
        1,
        1
      ],
      "min": [
        -1,
        -1,
        0
      ],
      "type": "VEC3"
    },
    {
      "bufferView": 0,
      "byteOffset": 22272,
      "componentType": 5125,
      "count": 270,
      "max": [
        179
      ],
      "min": [
        0
      ],
      "type": "SCALAR"
    },
    {
      "bufferView": 1,
      "byteOffset": 77832,
      "componentType": 5126,
      "count": 10,
      "max": [
        1.712380051612854,
        1.8185900449752808,
        2.7999999523162842
      ],
      "min": [
        -1.7243900299072266,
        -1.8346500396728516,
        2
      ],
      "type": "VEC3"
    },
    {
      "bufferView": 1,
      "byteOffset": 77952,
      "componentType": 5126,
      "count": 10,
      "max": [
        0,
        -0,
        1
      ],
      "min": [
        0,
        -0,
        1
      ],
      "type": "VEC3"
    },
    {
      "bufferView": 0,
      "byteOffset": 23352,
      "componentType": 5125,
      "count": 18,
      "max": [
        9
      ],
      "min": [
        0
      ],
      "type": "SCALAR"
    }
  ],
  "asset": {
    "extras": {
      "author": "Godheim (https://sketchfab.com/Godheim)",
      "license": "CC-BY-4.0 (http://creativecommons.org/licenses/by/4.0/)",
      "source": "https://sketchfab.com/models/992ee80b8f8c4bdab78e18a93a463371",
      "title": "Low Poly Building"
    },
    "generator": "Sketchfab-3.18.6",
    "version": "2.0"
  },
  "bufferViews": [
    {
      "buffer": 0,
      "byteLength": 23424,
      "byteOffset": 0,
      "name": "floatBufferViews",
      "target": 34963
    },
    {
      "buffer": 0,
      "byteLength": 78072,
      "byteOffset": 23424,
      "byteStride": 12,
      "name": "floatBufferViews",
      "target": 34962
    },
    {
      "buffer": 0,
      "byteLength": 320,
      "byteOffset": 101496,
      "byteStride": 16,
      "name": "floatBufferViews",
      "target": 34962
    }
  ],
  "buffers": [
    {
      "byteLength": 101816,
      "uri": "scene.bin"
    }
  ],
  "materials": [
    {
      "doubleSided": true,
      "emissiveFactor": [
        0,
        0,
        0
      ],
      "name": "Material.006",
      "pbrMetallicRoughness": {
        "baseColorFactor": [
          0.0352170095,
          0.0352170095,
          0.0352170095,
          1
        ],
        "metallicFactor": 0,
        "roughnessFactor": 0.59999999999999998
      }
    },
    {
      "doubleSided": true,
      "emissiveFactor": [
        0,
        0,
        0
      ],
      "name": "Material",
      "pbrMetallicRoughness": {
        "baseColorFactor": [
          0.80000001190000003,
          0.80000001190000003,
          0.80000001190000003,
          1
        ],
        "metallicFactor": 0,
        "roughnessFactor": 0.59999999999999998
      }
    },
    {
      "doubleSided": true,
      "emissiveFactor": [
        0,
        0,
        0
      ],
      "name": "Material.001",
      "pbrMetallicRoughness": {
        "baseColorFactor": [
          0.15000000599999999,
          0.15000000599999999,
          0.15000000599999999,
          1
        ],
        "metallicFactor": 0,
        "roughnessFactor": 0.59999999999999998
      }
    },
    {
      "doubleSided": true,
      "emissiveFactor": [
        0,
        0,
        0
      ],
      "name": "Material.002",
      "pbrMetallicRoughness": {
        "baseColorFactor": [
          0.34999999399999998,
          0.34999999399999998,
          0.34999999399999998,
          1
        ],
        "metallicFactor": 0,
        "roughnessFactor": 0.59999999999999998
      }
    },
    {
      "doubleSided": true,
      "emissiveFactor": [
        0,
        0,
        0
      ],
      "name": "Material.003",
      "pbrMetallicRoughness": {
        "baseColorFactor": [
          0.054967869099999997,
          0.054967869099999997,
          0.054967869099999997,
          1
        ],
        "metallicFactor": 0,
        "roughnessFactor": 0.59999999999999998
      }
    },
    {
      "doubleSided": true,
      "emissiveFactor": [
        0,
        0,
        0
      ],
      "name": "Hemi",
      "pbrMetallicRoughness": {
        "baseColorFactor": [
          0.52771556379999995,
          0.52771556379999995,
          0.52771556379999995,
          1
        ],
        "metallicFactor": 0,
        "roughnessFactor": 0.59999999999999998
      }
    },
    {
      "doubleSided": true,
      "emissiveFactor": [
        0,
        0,
        0
      ],
      "name": "Material.005",
      "pbrMetallicRoughness": {
        "baseColorFactor": [
          1,
          1,
          1,
          1
        ],
        "metallicFactor": 0,
        "roughnessFactor": 0.59999999999999998
      }
    }
  ],
  "meshes": [
    {
      "name": "RES_T3_16_WEILL_01_0",
      "primitives": [
        {
          "attributes": {
            "NORMAL": 1,
            "POSITION": 0,
            "TANGENT": 2
          },
          "indices": 3,
          "material": 0,
          "mode": 4
        }
      ]
    },
    {
      "name": "Batiment_0",
      "primitives": [
        {
          "attributes": {
            "NORMAL": 5,
            "POSITION": 4
          },
          "indices": 6,
          "material": 1,
          "mode": 4
        }
      ]
    },
    {
      "name": "Batiment_1",
      "primitives": [
        {
          "attributes": {
            "NORMAL": 8,
            "POSITION": 7
          },
          "indices": 9,
          "material": 2,
          "mode": 4
        }
      ]
    },
    {
      "name": "Batiment_2",
      "primitives": [
        {
          "attributes": {
            "NORMAL": 11,
            "POSITION": 10
          },
          "indices": 12,
          "material": 3,
          "mode": 4
        }
      ]
    },
    {
      "name": "Batiment_3",
      "primitives": [
        {
          "attributes": {
            "NORMAL": 14,
            "POSITION": 13
          },
          "indices": 15,
          "material": 4,
          "mode": 4
        }
      ]
    },
    {
      "name": "Batiment_4",
      "primitives": [
        {
          "attributes": {
            "NORMAL": 17,
            "POSITION": 16
          },
          "indices": 18,
          "material": 5,
          "mode": 4
        }
      ]
    },
    {
      "name": "Batiment_5",
      "primitives": [
        {
          "attributes": {
            "NORMAL": 20,
            "POSITION": 19
          },
          "indices": 21,
          "material": 6,
          "mode": 4
        }
      ]
    }
  ],
  "nodes": [
    {
      "children": [
        1
      ],
      "name": "RootNode (gltf orientation matrix)",
      "rotation": [
        -0.70710678118654746,
        -0,
        -0,
        0.70710678118654757
      ]
    },
    {
      "children": [
        2
      ],
      "name": "RootNode (model correction matrix)"
    },
    {
      "children": [
        3,
        12
      ],
      "name": "Root"
    },
    {
      "children": [
        4,
        5
      ],
      "name": "RES_T3_16_WEILL_01"
    },
    {
      "mesh": 0,
      "name": "RES_T3_16_WEILL_01_0"
    },
    {
      "children": [
        6,
        7,
        8,
        9,
        10,
        11
      ],
      "name": "Batiment"
    },
    {
      "mesh": 1,
      "name": "Batiment_0"
    },
    {
      "mesh": 2,
      "name": "Batiment_1"
    },
    {
      "mesh": 3,
      "name": "Batiment_2"
    },
    {
      "mesh": 4,
      "name": "Batiment_3"
    },
    {
      "mesh": 5,
      "name": "Batiment_4"
    },
    {
      "mesh": 6,
      "name": "Batiment_5"
    },
    {
      "children": [
        13
      ],
      "matrix": [
        1,
        0,
        0,
        0,
        0,
        1,
        0,
        0,
        0,
        0,
        1,
        0,
        -5.0495099999999997,
        0,
        0,
        1
      ],
      "name": "Hemi"
    },
    {
      "name": "Hemi"
    }
  ],
  "scene": 0,
  "scenes": [
    {
      "name": "OSG_Scene",
      "nodes": [
        0
      ]
    }
  ]
}

