{
  "accessors": [
    {
      "bufferView": 2,
      "componentType": 5126,
      "count": 4140,
      "max": [
        2500,
        1250,
        200
      ],
      "min": [
        -2500,
        -1250,
        -385.36370849609375
      ],
      "type": "VEC3"
    },
    {
      "bufferView": 2,
      "byteOffset": 49680,
      "componentType": 5126,
      "count": 4140,
      "max": [
        1,
        1,
        1
      ],
      "min": [
        -1,
        -1,
        -1
      ],
      "type": "VEC3"
    },
    {
      "bufferView": 3,
      "componentType": 5126,
      "count": 4140,
      "max": [
        1,
        1,
        1,
        1
      ],
      "min": [
        -1,
        -1,
        -1,
        -1
      ],
      "type": "VEC4"
    },
    {
      "bufferView": 0,
      "componentType": 5125,
      "count": 12846,
      "max": [
        4139
      ],
      "min": [
        0
      ],
      "type": "SCALAR"
    },
    {
      "bufferView": 2,
      "byteOffset": 99360,
      "componentType": 5126,
      "count": 36,
      "max": [
        2460,
        1210,
        150
      ],
      "min": [
        -2460,
        -1210,
        150
      ],
      "type": "VEC3"
    },
    {
      "bufferView": 2,
      "byteOffset": 99792,
      "componentType": 5126,
      "count": 36,
      "max": [
        0,
        0,
        1
      ],
      "min": [
        0,
        0,
        1
      ],
      "type": "VEC3"
    },
    {
      "bufferView": 3,
      "byteOffset": 66240,
      "componentType": 5126,
      "count": 36,
      "max": [
        1,
        3.2109286962622718e-07,
        0,
        1
      ],
      "min": [
        1,
        1.6054644902396831e-07,
        0,
        1
      ],
      "type": "VEC4"
    },
    {
      "bufferView": 1,
      "componentType": 5126,
      "count": 36,
      "max": [
        4.4900102615356445,
        4.5300111770629883
      ],
      "min": [
        1.3381273333834542e-07,
        0
      ],
      "type": "VEC2"
    },
    {
      "bufferView": 0,
      "byteOffset": 51384,
      "componentType": 5125,
      "count": 54,
      "max": [
        35
      ],
      "min": [
        0
      ],
      "type": "SCALAR"
    },
    {
      "bufferView": 2,
      "byteOffset": 100224,
      "componentType": 5126,
      "count": 359,
      "max": [
        100,
        99.802680969238281,
        0
      ],
      "min": [
        -100,
        -99.80267333984375,
        -2895.739013671875
      ],
      "type": "VEC3"
    },
    {
      "bufferView": 2,
      "byteOffset": 104532,
      "componentType": 5126,
      "count": 359,
      "max": [
        1,
        0.99802684783935547,
        1
      ],
      "min": [
        -1,
        -0.99802678823471069,
        -1
      ],
      "type": "VEC3"
    },
    {
      "bufferView": 3,
      "byteOffset": 66816,
      "componentType": 5126,
      "count": 359,
      "max": [
        0.99802678823471069,
        1,
        0,
        1
      ],
      "min": [
        -0.99802690744400024,
        -1,
        0,
        -1
      ],
      "type": "VEC4"
    },
    {
      "bufferView": 0,
      "byteOffset": 51600,
      "componentType": 5125,
      "count": 1500,
      "max": [
        358
      ],
      "min": [
        0
      ],
      "type": "SCALAR"
    },
    {
      "bufferView": 2,
      "byteOffset": 108840,
      "componentType": 5126,
      "count": 24,
      "max": [
        250,
        250,
        500
      ],
      "min": [
        -250,
        -250,
        0
      ],
      "type": "VEC3"
    },
    {
      "bufferView": 2,
      "byteOffset": 109128,
      "componentType": 5126,
      "count": 24,
      "max": [
        1,
        1,
        1
      ],
      "min": [
        -1,
        -1,
        -1
      ],
      "type": "VEC3"
    },
    {
      "bufferView": 3,
      "byteOffset": 72560,
      "componentType": 5126,
      "count": 24,
      "max": [
        1,
        1,
        0,
        1
      ],
      "min": [
        -1,
        -1,
        0,
        1
      ],
      "type": "VEC4"
    },
    {
      "bufferView": 0,
      "byteOffset": 57600,
      "componentType": 5125,
      "count": 36,
      "max": [
        23
      ],
      "min": [
        0
      ],
      "type": "SCALAR"
    },
    {
      "bufferView": 4,
      "componentType": 5126,
      "count": 601,
      "max": [
        20
      ],
      "min": [
        0
      ],
      "type": "SCALAR"
    },
    {
      "bufferView": 5,
      "componentType": 5126,
      "count": 601,
      "max": [
        0.92387950420379639,
        0,
        0,
        0.92387956380844116
      ],
      "min": [
        -0.86562716960906982,
        0,
        0,
        -0.49808162450790405
      ],
      "type": "VEC4"
    }
  ],
  "animations": [
    {
      "channels": [
        {
          "sampler": 0,
          "target": {
            "node": 5,
            "path": "rotation"
          }
        }
      ],
      "name": "Take 001",
      "samplers": [
        {
          "input": 17,
          "interpolation": "LINEAR",
          "output": 18
        }
      ]
    }
  ],
  "asset": {
    "extras": {
      "author": "Joel From (https://sketchfab.com/joelfromsweden)",
      "license": "CC-BY-4.0 (http://creativecommons.org/licenses/by/4.0/)",
      "source": "https://sketchfab.com/models/0f5a6f5205a94b66a73b6fbef923f4a3",
      "title": "SolarPanel"
    },
    "generator": "Sketchfab-3.20.7",
    "version": "2.0"
  },
  "bufferViews": [
    {
      "buffer": 0,
      "byteLength": 57744,
      "byteOffset": 0,
      "name": "floatBufferViews",
      "target": 34963
    },
    {
      "buffer": 0,
      "byteLength": 288,
      "byteOffset": 57744,
      "byteStride": 8,
      "name": "floatBufferViews",
      "target": 34962
    },
    {
      "buffer": 0,
      "byteLength": 109416,
      "byteOffset": 58032,
      "byteStride": 12,
      "name": "floatBufferViews",
      "target": 34962
    },
    {
      "buffer": 0,
      "byteLength": 72944,
      "byteOffset": 167448,
      "byteStride": 16,
      "name": "floatBufferViews",
      "target": 34962
    },
    {
      "buffer": 0,
      "byteLength": 2404,
      "byteOffset": 240392,
      "name": "floatBufferViews"
    },
    {
      "buffer": 0,
      "byteLength": 9616,
      "byteOffset": 242796,
      "byteStride": 16,
      "name": "floatBufferViews"
    }
  ],
  "buffers": [
    {
      "byteLength": 252412,
      "uri": "scene.bin"
    }
  ],
  "images": [
    {
      "uri": "textures/Material_3_baseColor.jpeg"
    }
  ],
  "materials": [
    {
      "doubleSided": true,
      "emissiveFactor": [
        0,
        0,
        0
      ],
      "name": "pelare__0",
      "pbrMetallicRoughness": {
        "baseColorFactor": [
          0.22148718740000001,
          0.2008542821,
          0.2008542821,
          1
        ],
        "metallicFactor": 1,
        "roughnessFactor": 0.34533742890000002
      }
    },
    {
      "doubleSided": true,
      "emissiveFactor": [
        0,
        0,
        0
      ],
      "name": "metal",
      "pbrMetallicRoughness": {
        "baseColorFactor": [
          0.25186786719999998,
          0.23288638919999999,
          0.23288638919999999,
          1
        ],
        "metallicFactor": 0.70116564979999996,
        "roughnessFactor": 0.029999999999999999
      }
    },
    {
      "doubleSided": true,
      "emissiveFactor": [
        0,
        0,
        0
      ],
      "name": "Material_3",
      "pbrMetallicRoughness": {
        "baseColorFactor": [
          1,
          1,
          1,
          1
        ],
        "baseColorTexture": {
          "index": 0,
          "texCoord": 0
        },
        "metallicFactor": 0.33306749029999999,
        "roughnessFactor": 0
      }
    }
  ],
  "meshes": [
    {
      "name": "solpanel_metal_0",
      "primitives": [
        {
          "attributes": {
            "NORMAL": 1,
            "POSITION": 0,
            "TANGENT": 2
          },
          "indices": 3,
          "material": 1,
          "mode": 4
        }
      ]
    },
    {
      "name": "solpanel_Material #3_0",
      "primitives": [
        {
          "attributes": {
            "NORMAL": 5,
            "POSITION": 4,
            "TANGENT": 6,
            "TEXCOORD_0": 7
          },
          "indices": 8,
          "material": 2,
          "mode": 4
        }
      ]
    },
    {
      "name": "pelare__0",
      "primitives": [
        {
          "attributes": {
            "NORMAL": 10,
            "POSITION": 9,
            "TANGENT": 11
          },
          "indices": 12,
          "material": 0,
          "mode": 4
        }
      ]
    },
    {
      "name": "betong__0",
      "primitives": [
        {
          "attributes": {
            "NORMAL": 14,
            "POSITION": 13,
            "TANGENT": 15
          },
          "indices": 16,
          "material": 0,
          "mode": 4
        }
      ]
    }
  ],
  "nodes": [
    {
      "children": [
        1
      ],
      "name": "RootNode (gltf orientation matrix)",
      "rotation": [
        -0.70710678118654746,
        -0,
        -0,
        0.70710678118654757
      ]
    },
    {
      "children": [
        2
      ],
      "name": "RootNode (model correction matrix)"
    },
    {
      "children": [
        3
      ],
      "matrix": [
        1,
        0,
        0,
        0,
        0,
        0,
        1,
        0,
        0,
        -1,
        0,
        0,
        0,
        0,
        0,
        1
      ],
      "name": "8bb55534cb68440aa0cf0b6257f4eb16.fbx"
    },
    {
      "children": [
        4
      ],
      "name": ""
    },
    {
      "children": [
        5,
        9,
        11
      ],
      "name": "RootNode"
    },
    {
      "children": [
        6
      ],
      "name": "solpanel",
      "rotation": [
        0.92387950420379639,
        0,
        0,
        -0.38268345594406128
      ],
      "translation": [
        0,
        -290.32080078125,
        -1.269032418349525e-05
      ]
    },
    {
      "children": [
        7,
        8
      ],
      "matrix": [
        1,
        0,
        -0,
        0,
        0,
        1,
        0,
        0,
        0,
        0,
        1,
        0,
        0,
        -1.221795810124604e-05,
        279.51431274414062,
        1
      ],
      "name": ""
    },
    {
      "mesh": 0,
      "name": "solpanel_metal_0"
    },
    {
      "mesh": 1,
      "name": "solpanel_Material #3_0"
    },
    {
      "children": [
        10
      ],
      "name": "pelare",
      "rotation": [
        -0.7071068286895752,
        -0,
        0,
        0.7071068286895752
      ],
      "translation": [
        -30.663982391357422,
        -309.59942626953125,
        -1.3707990646362305
      ]
    },
    {
      "mesh": 2,
      "name": "pelare__0"
    },
    {
      "children": [
        12
      ],
      "name": "betong",
      "rotation": [
        -0.7071068286895752,
        -0,
        0,
        0.7071068286895752
      ],
      "translation": [
        -20.0157470703125,
        -3343.1806640625,
        -8.3347692489624023
      ]
    },
    {
      "mesh": 3,
      "name": "betong__0"
    }
  ],
  "samplers": [
    {
      "magFilter": 9729,
      "minFilter": 9987,
      "wrapS": 10497,
      "wrapT": 10497
    }
  ],
  "scene": 0,
  "scenes": [
    {
      "name": "OSG_Scene",
      "nodes": [
        0
      ]
    }
  ],
  "textures": [
    {
      "sampler": 0,
      "source": 0
    }
  ]
}

